<svg width="695" height="696" viewBox="0 0 695 696" fill="none" xmlns="http://www.w3.org/2000/svg">
<g clip-path="url(#clip0)">
<path d="M344.234 416.209L319.214 416.07L316.225 417.252L313.793 417.044L310.248 418.365L309.484 420.242L313.654 426.291L315.322 432.758L317.824 442.075L315.183 445.899L314.766 447.846L316.781 453.617L318.936 459.457L321.438 462.934L321.855 468.357L320.882 475.519L318.102 479.76L313.167 486.087L311.152 489.981L308.302 498.672L307.746 502.775L304.758 511.605L303.438 520.088L304.132 526.137L308.233 524.26L313.237 522.66L318.658 522.939L323.592 527.319L324.913 526.624L358.829 526.207L364.528 530.796L384.752 532.186L400.32 528.223L395.038 522.243L389.617 514.386L390.729 483.793L408.313 483.863L407.618 480.595L409.008 476.979L407.618 472.46L408.66 467.801L407.826 464.811L404.004 464.255L398.722 465.646L395.038 465.437L392.953 466.341L393.579 454.868L390.868 451.322L390.312 445.412L391.633 439.572L389.965 435.887L389.895 429.837L379.609 429.907L380.374 426.43L376.065 426.5L375.578 428.169L370.296 428.516L368.142 434.148L366.821 436.512L362.165 435.191L359.385 436.512L353.755 437.277L350.558 432.271L348.682 429.142L346.249 423.371L344.234 416.209ZM311.291 414.332L311.569 410.16L312.959 407.727L316.086 405.71L312.89 402.373L310.318 403.972L306.843 408.144L309.136 415.375L311.291 414.332Z" fill="#C8C8C8" stroke="black" stroke-linejoin="round"/>
<path d="M464.955 386.659L464.538 382.904L460.02 382.279L457.379 387.771L452.236 387.007L454.321 391.387L454.391 393.056L457.379 402.234V402.651L458.213 402.512L461.341 399.035L464.746 394.029L466.831 392.013L466.762 388.884L464.955 386.659Z" fill="#C8C8C8" stroke="black" stroke-linejoin="round"/>
<path d="M236.3 247.528L229.836 241.966L226.848 242.036L223.998 244.817L222.191 247.737L218.021 248.571L216.284 252.813L213.434 253.925L212.322 258.931L214.894 261.782L217.882 265.189L218.16 269.917L219.898 271.864L219.55 293.975L221.635 300.58L228.655 299.468L229.072 283.962L228.863 277.844L230.462 271.795L233.033 268.805L237.134 262.895L236.23 260.322L237.898 256.428L235.952 250.727L236.3 247.528Z" fill="#C8C8C8" stroke="black" stroke-linejoin="round"/>
<path d="M208.987 216.101H203.566L201.481 214.293L196.824 215.614L188.971 219.647L187.372 222.637L180.839 226.947L179.658 229.451L176.113 231.397L172.082 230.076L169.719 232.44L168.468 239.046L161.727 246.972L161.935 250.24L159.572 254.342L160.128 259.905L163.951 261.991L165.41 265.189L169.163 267.206L172.152 264.842L176.113 264.424L181.882 266.927L180.77 259.696L180.978 254.203L195.643 253.786L199.396 254.482L202.106 252.952L205.998 253.717L213.435 253.925L216.284 252.813L218.022 248.571L222.192 247.737L223.999 244.817L224.207 238.211L214.477 236.056L214.199 231.397L209.404 225.14L208.292 220.759L208.987 216.101Z" fill="#C8C8C8" stroke="black" stroke-linejoin="round"/>
<path d="M417.417 530.309L415.888 529.614L411.092 531.769H408.59L403.1 535.524L400.042 531.56L387.045 534.967L380.79 535.246L379.47 569.524L371.269 569.872L370.296 597.962L372.52 599.353L377.037 608.531L375.995 614.371L377.732 617.778L383.64 616.805L387.949 612.494L391.98 609.574L394.204 604.985L398.374 602.76L401.779 603.942L405.602 606.653L412.274 607.071L417.695 604.846L418.668 601.856L420.336 597.267L424.853 596.502L427.564 592.886L430.622 586.42L438.406 579.258L450.429 572.166L445.356 567.855L438.962 566.395L436.807 560.277L436.946 556.87L433.402 555.827L424.367 545.258L421.934 539.696L420.336 538.027L417.417 530.309Z" fill="#C8C8C8" stroke="black" stroke-linejoin="round"/>
<path d="M407.965 276.801L407.27 276.314L404.351 273.533L403.726 270.543L405.046 266.58L404.977 262.617L399.973 256.637L398.93 252.535L393.579 254.134L389.409 258.028L383.432 268.527L375.578 272.977L367.377 272.42L365.014 273.255L365.848 276.662L361.47 279.999L357.925 283.754L347.292 287.439L345.207 285.284L343.747 285.075L342.218 287.578L335.268 288.273L331.029 298.008L329.013 299.815L328.457 307.255L329.291 311.288L328.666 314.139L332.697 319.214L333.392 322.621L336.589 327.628L340.481 330.687L340.898 335.067L341.801 337.849L346.18 328.949L351.253 323.803L356.952 325.472L362.443 325.959L363.138 319.284L366.404 314.347L370.922 311.288L377.941 314.556L383.362 318.102L389.617 319.075L395.942 320.953L398.444 315.112L399.556 314.347L403.448 315.321L412.83 310.523L416.236 312.609L418.946 312.261L420.197 309.967L423.325 309.132L429.719 310.106L435.209 310.384L437.989 309.341L436.599 306.282L430.205 302.458L427.981 296.687L424.367 292.515L418.599 287.508L418.529 284.38L413.803 280.555L407.965 276.801Z" fill="#C8C8C8" stroke="black" stroke-linejoin="round"/>
<path d="M160.128 259.905L156.653 261.365L154.637 262.547L153.386 258.445L150.954 259.557L149.494 259.349L147.896 262.13L141.363 262.06L139.069 260.6L137.957 261.504L136.22 262.269L135.525 265.537L137.471 269.5L139.556 277.218L136.359 278.33L135.594 279.652L136.22 281.529L135.664 285.77H134.343L133.926 288.551L134.76 293.21L132.884 297.451L135.386 300.094L138.027 300.719L141.641 304.752L141.849 308.576L141.085 309.758L140.39 317.685L141.988 317.963L150.398 314.417L156.305 311.636L166.383 309.967L171.804 309.828L177.711 311.705L181.603 311.636L181.951 307.811L178.337 299.537L180.561 288.691L184.105 280.625L181.881 266.927L176.113 264.424L172.151 264.842L169.163 267.206L165.41 265.189L163.95 261.991L160.128 259.905Z" fill="#C8C8C8" stroke="black" stroke-linejoin="round"/>
<path d="M331.863 254.899L332.141 248.502L331.446 242.175L328.04 235.986L325.677 236.543L325.399 239.602L328.805 243.426L327.901 245.164L327.554 248.363L320.465 255.803L318.31 261.921L317.198 266.927L315.391 269.083L313.723 275.827L309.275 279.791L307.955 284.658L306.078 288.551L305.314 292.515L299.545 295.783L294.75 291.819L291.553 291.958L286.549 297.59L284.047 297.66L280.085 306.977L277.931 313.791L277.861 316.433L280.016 317.824L281.753 322.135L285.645 323.734L288.981 330.131L287.73 337.709L301.561 337.918L305.592 337.292L310.735 338.613L315.808 337.362L316.851 337.849L327.554 338.266L334.434 340.769L341.176 343.063L341.801 337.849L340.898 335.067L340.481 330.687L336.589 327.628L333.392 322.621L332.697 319.214L328.666 314.139L329.291 311.288L328.457 307.255L329.013 299.815L331.029 298.008L335.268 288.273L336.519 285.701L333.809 279.026L332.558 275.063L328.874 273.463L323.87 267.831L325.608 263.312L329.5 264.216L331.863 263.59L336.589 263.66L331.863 254.899Z" fill="#C8C8C8" stroke="black" stroke-linejoin="round"/>
<path d="M429.718 310.106L423.324 309.132L420.197 309.967L418.946 312.261L416.235 312.609L412.83 310.523L403.447 315.321L399.555 314.347L398.443 315.112L395.941 320.953L389.617 319.075L383.362 318.102L377.941 314.556L370.921 311.288L366.404 314.347L363.137 319.284L362.442 325.959L361.956 331.799L359.454 336.945L357.786 342.924L356.743 351.477L357.23 356.9L355.84 360.237L355.631 363.783L354.658 366.843L349.029 371.501L345.137 376.438L341.453 385.755L341.662 393.682L339.507 396.741L334.503 401.469L329.499 407.518L326.372 405.78L325.816 403.068L321.229 402.999L318.31 406.684L316.086 405.71L312.958 407.727L311.568 410.16L311.29 414.332L309.136 415.375L310.248 418.365L313.792 417.044L316.225 417.252L319.213 416.07L344.233 416.209L346.249 423.371L348.681 429.142L350.558 432.271L353.755 437.277L359.384 436.512L362.164 435.191L366.821 436.512L368.141 434.148L370.296 428.516L375.578 428.169L376.064 426.5L380.373 426.43L379.609 429.907L389.895 429.837L389.964 435.886L391.632 439.572L390.312 445.412L390.868 451.322L393.578 454.868L392.953 466.341L395.038 465.437L398.721 465.646L404.003 464.255L407.826 464.811L410.745 465.02L411.162 468.01L415.123 467.801L420.475 468.705L423.185 473.016L429.927 474.406L435.139 471.347L436.946 476.423L443.34 477.744L446.329 481.846L449.665 487.13L456.128 487.2L455.711 476.84L453.348 478.578L447.51 474.824L445.286 473.155L446.607 463.49L448.344 452.087L446.537 447.846L449.039 441.727L451.333 440.545L462.731 438.946L464.19 439.363L464.607 437.764L462.244 435.191L461.202 429.907L456.128 424.623L453.279 417.739L454.877 413.706L452.653 408.283L454.321 392.917L454.391 393.056L454.321 391.387L452.236 387.007L453.07 381.722L454.252 381.027L454.599 375.256L457.032 372.614L457.101 365.313L459.117 361.628L459.534 353.91L461.341 349.46L464.538 344.454L467.804 341.881L470.515 338.474L467.109 337.153L467.526 325.959L459.951 319.562L457.935 315.46L453.209 317.476L449.248 316.85L447.024 318.45L443.201 317.268L437.989 309.341L435.209 310.384L429.718 310.106Z" fill="#C8C8C8" stroke="black" stroke-linejoin="round"/>
<path d="M362.442 325.959L356.952 325.472L351.253 323.803L346.179 328.949L341.801 337.849L341.175 343.063L334.434 340.769L327.553 338.266L316.85 337.849L316.225 342.09L318.588 347.027L324.912 346.262L327.067 348.139L323.383 359.333L327.414 365.035L328.318 372.544L327.206 378.941L324.634 383.461L317.128 383.043L312.611 378.454L311.916 382.696L306.147 383.878L303.228 386.311L306.425 392.639L299.962 397.992L306.842 408.144L310.317 403.972L312.889 402.373L316.086 405.71L318.31 406.684L321.229 402.999L325.816 403.068L326.372 405.78L329.499 407.518L334.503 401.469L339.507 396.741L341.662 393.682L341.453 385.755L345.137 376.438L349.029 371.501L354.658 366.843L355.631 363.783L355.84 360.237L357.23 356.9L356.743 351.477L357.786 342.924L359.454 336.945L361.956 331.799L362.442 325.959Z" fill="#C8C8C8" stroke="black" stroke-linejoin="round"/>
<path d="M570.109 249.406L566.425 246.764L571.151 244.469L571.221 240.506L569.136 237.516L566.634 239.88L563.02 239.046L560.24 243.287L557.529 247.807L558.294 250.449L558.502 253.369L563.228 253.508L565.244 252.882L567.19 254.551L570.109 249.406Z" fill="#C8C8C8" stroke="black" stroke-linejoin="round"/>
<path d="M272.718 3.96323L267.297 4.51948L263.961 2.2945L255.482 2.36403L248.115 6.18821L244.084 4.72807L230.948 5.56243L217.465 7.3007L209.82 10.2905L204.816 14.3233L196.198 15.992L188.484 21.3459L191.403 27.6036L191.889 33.4442L194.6 43.6651L196.754 45.6815L195.225 49.4362L184.661 51.0354L180.908 54.5814L176.252 55.4158L175.835 62.5079L166.244 66.2625L163.047 71.1297L156.375 73.7023L148.174 75.1624L134.83 82.2545L134.691 93.588V94.2833L134.482 96.1606L165.132 119.453L192.932 140.452L221.01 161.45L223.025 165.9L228.238 168.681L232.06 170.211L232.199 176.329L241.443 175.425L253.188 171.114L277.166 152.272L305.313 133.916L301.56 127.867L294.888 123.417L291.066 125.155L288.077 119.801L287.66 115.699L282.656 108.676L285.853 104.643L284.95 98.5942L285.923 93.3099L285.228 88.9295L286.479 81.0725L285.923 76.6226L283.073 68.1399L279.112 50.9658L274.038 47.0721L273.899 44.7776L267.158 39.0066L266.254 31.7754L271.119 26.352L272.787 18.2865L271.189 8.96943L272.718 3.96323Z" fill="#C8C8C8" stroke="black" stroke-linejoin="round"/>
<path d="M437.016 61.2563L428.745 58.4751L420.753 55.9025L409.911 56.0416L407.339 60.6306L408.868 64.7329L407.2 70.643L410.119 78.4304L412.135 112.639L413.664 148.03H447.093H479.341H512.284L510.755 146.084L500.539 137.462L499.913 131.204L501.442 129.535L493.38 118.897L490.322 113.404L486.917 108.189L479.619 93.1708L473.781 83.5061L469.542 73.4242L470.306 72.5203L477.326 86.2873L481.357 90.5982L484.345 93.6575L486.083 91.9888L487.959 86.9826L489.071 79.7514L491.017 75.8577L489.975 73.4242L484.067 59.4486L480.314 61.8126L473.92 61.2563L467.248 59.0314L465.65 62.1602L463.009 57.4322L457.101 56.1806L450.012 57.015L446.885 59.7267L440.908 62.786L437.016 61.2563Z" fill="#C8C8C8" stroke="black" stroke-linejoin="round"/>
<path d="M540.432 211.234L535.567 206.505L532.787 197.675L527.366 186.55L523.405 192.043L517.289 193.642L514.787 196.563L514.3 202.959L511.312 217.074L512.354 220.968L522.293 222.984L524.586 215.753L529.868 220.133L534.733 217.908L536.818 219.925L542.587 219.994L550.093 223.888L552.456 227.226L556.278 230.285L560.031 235.917L563.02 239.046L566.634 239.88L569.136 237.516L564.827 234.596L562.047 231.328L557.251 225.765L552.317 220.272L540.432 211.234Z" fill="#C8C8C8" stroke="black" stroke-linejoin="round"/>
<path d="M524.586 215.753L522.292 222.984L512.354 220.968L511.381 229.242L508.253 238.698L503.319 243.426L499.983 250.796L499.218 254.76L495.326 257.402L493.033 267.484L493.102 268.666L493.38 276.175L492.129 279.095L487.681 279.304L484.901 284.797L490.114 285.492L494.492 290.151L496.021 294.044L499.983 296.269L505.126 306.699L509.574 308.368L509.643 313.721L512.562 316.92H518.47L529.381 325.055L532.022 325.194L534.038 324.916L535.914 326.028L541.613 326.793L544.046 322.76L551.76 318.728L555.166 321.996H561.004L563.297 318.936L568.718 318.797L576.155 311.983L587.205 311.566L610.488 282.711L603.329 282.78L575.321 271.377L571.985 267.901L568.788 263.312L565.452 257.958L567.189 254.551L565.243 252.882L563.228 253.508L558.502 253.369L558.293 250.449L557.529 247.807L560.239 243.287L563.019 239.046L560.031 235.917L556.278 230.285L552.455 227.226L550.092 223.888L542.586 219.994L536.818 219.925L534.733 217.909L529.868 220.133L524.586 215.753Z" fill="#C8C8C8" stroke="black" stroke-linejoin="round"/>
<path d="M316.85 337.849L315.808 337.362L310.734 338.613L305.591 337.292L301.56 337.918L301.63 349.53L289.328 349.391L286.409 349.947L284.741 357.108L282.656 364.131L280.78 367.19L280.571 370.389L285.645 380.332L291.274 388.258L299.962 397.992L306.425 392.639L303.228 386.311L306.147 383.878L311.916 382.696L312.611 378.454L317.128 383.043L324.634 383.461L327.206 378.941L328.318 372.544L327.414 365.035L323.383 359.333L327.067 348.139L324.912 346.262L318.588 347.027L316.225 342.09L316.85 337.849Z" fill="#C8C8C8" stroke="black" stroke-linejoin="round"/>
<path d="M205.998 253.717L202.106 252.952L199.395 254.482L195.642 253.786L180.978 254.203L180.769 259.696L181.881 266.927L184.105 280.625L180.561 288.691L178.337 299.537L181.951 307.811L181.603 311.636L189.179 314.347L196.824 311.566L201.48 308.298L214.824 302.666L212.878 299.259L210.654 293.14L209.959 288.412L211.836 279.721L209.751 276.245L208.917 268.666V261.643L205.372 256.707L205.998 253.717Z" fill="#F8A41D" stroke="black" stroke-linejoin="round"/>
<path d="M108.698 240.019L107.447 240.506L102.86 239.741L102.234 240.854L100.358 241.062L94.311 238.698L90.28 238.629L90.0715 241.896L89.168 242.87L89.7935 246.068L88.473 247.32L86.5965 247.389L84.3725 248.989L81.801 248.78L77.9785 253.508L80.4805 255.038L81.662 257.193L82.5655 261.435L84.6505 263.312L86.805 264.563L90.0715 268.318L93.755 274.02L98.2725 269.778L99.315 267.136L100.775 265.05L103.068 264.842L105.084 263.034H111.825L114.119 266.51L115.926 270.543L115.648 273.324L116.968 275.827L116.899 279.373L119.192 278.817L120.999 278.609L123.223 277.496L126.768 283.406L126.142 287.3L127.81 289.316L130.173 289.386L131.98 285.492L134.343 285.77H135.664L136.22 281.529L135.594 279.652L136.359 278.33L139.556 277.218L137.471 269.5L135.525 265.537L136.22 262.269L137.957 261.504L135.386 258.723L135.872 255.872L134.76 254.76L132.953 255.664L133.37 252.535L135.108 250.101L131.633 246.068L130.66 243.426L128.783 241.271L127.115 241.062L125.1 242.383L122.32 243.635L120.026 245.721L116.412 244.956L114.119 242.522L112.729 242.244L110.505 243.496H109.115L108.698 240.019Z" fill="#C8C8C8" stroke="black" stroke-linejoin="round"/>
<path d="M63.8701 233.205L71.5151 233.344L73.6001 232.023L75.1291 231.954L78.2566 229.729L81.8706 231.745L85.4846 231.954L89.1681 229.798L87.5001 227.017L84.7201 228.616L82.0791 228.547L78.8126 226.183L76.1716 226.322L74.2256 228.616L65.0516 228.894L63.8701 233.205Z" fill="#C8C8C8" stroke="black" stroke-linejoin="round"/>
<path d="M90.2801 238.629L74.7121 238.211L72.4186 239.324L69.6386 238.976L65.1211 240.575L65.6076 242.592L68.1791 244.678L68.1096 246.138L69.9861 248.85L73.5306 249.475L77.9786 253.508L81.8011 248.78L84.3726 248.989L86.5966 247.389L88.4731 247.32L89.7936 246.068L89.1681 242.87L90.0716 241.896L90.2801 238.629Z" fill="#C8C8C8" stroke="black" stroke-linejoin="round"/>
<path d="M301.561 337.918L287.73 337.71L284.881 348.487L286.41 349.947L289.329 349.391L301.63 349.53L301.561 337.918Z" fill="#C8C8C8" stroke="black" stroke-linejoin="round"/>
<path d="M561.004 321.996H555.166L551.76 318.728L544.046 322.76L541.613 326.793L535.914 326.028L534.038 324.916L532.022 325.194L529.381 325.055L518.47 316.92H512.562L509.643 313.721L509.574 308.368L505.126 306.699L499.496 313.026L494.353 318.797L498.454 325.472L499.496 330.339L503.319 341.325L500.261 348.348L496.16 354.744L493.728 358.638V359.125L495.743 362.74L495.187 369.902L525.837 389.51L526.323 395.072L538.347 404.667L541.822 401.469L543.559 395.072L546.339 391.248L547.66 384.434L550.857 383.739L553.011 379.706L558.988 375.882L553.984 367.955L553.706 332.912L561.004 321.996Z" fill="#F8A41D" stroke="black" stroke-linejoin="round"/>
<path d="M134.343 285.77L131.98 285.492L130.173 289.386L127.81 289.316L126.142 287.3L126.768 283.406L123.223 277.496L120.999 278.609L119.192 278.817L115.231 283.337L111.408 288.551L110.922 291.333L108.906 294.392L114.536 300.58L121.764 305.865L129.409 313.165L138.166 317.754L140.39 317.685L141.085 309.758L141.849 308.576L141.641 304.752L138.027 300.719L135.386 300.093L132.884 297.451L134.76 293.21L133.926 288.551L134.343 285.77Z" fill="#C8C8C8" stroke="black" stroke-linejoin="round"/>
<path d="M409.911 56.0416L407.756 52.9127L399.625 51.8002L396.914 50.1315H393.856L390.798 45.8206L379.748 43.8737L374.257 45.1253L368.767 49.6448L366.473 54.3033L368.836 61.6735L365.153 66.0539L361.33 68.557L352.365 63.7594L340.758 59.7962L333.391 57.9189L329.152 49.3666L318.24 45.1253L311.429 43.5261L308.093 44.3604L298.502 41.023L298.294 48.3932L294.402 51.1744L292.039 54.2338L286.548 57.9189L287.591 61.8821L286.965 65.9149L283.073 68.1399L285.923 76.6226L286.479 81.0725L285.228 88.9295L285.923 93.3099L284.95 98.5942L285.853 104.643L282.656 108.676L287.66 115.699L288.077 119.801L291.066 125.155L294.888 123.417L301.56 127.867L305.313 133.916L318.518 138.088L323.314 143.302L329.082 139.756L337.353 134.472L370.991 152.897L404.837 171.323L404.768 167.29H414.359L413.664 148.03L412.135 112.639L410.119 78.4304L407.2 70.643L408.868 64.7329L407.339 60.6306L409.911 56.0416Z" fill="#C8C8C8" stroke="black" stroke-linejoin="round"/>
<path d="M434.584 653.517L436.321 650.458L440.978 648.928L442.646 645.799L445.495 641.14L442.854 638.22L439.518 635.3L435.557 637.247L430.831 641.001L426.035 647.051L431.595 654.421L434.584 653.517Z" fill="#C8C8C8" stroke="black" stroke-linejoin="round"/>
<path d="M188.484 21.3459L185.009 21.2763L176.738 19.1209L169.093 19.7467L164.367 15.6444L158.46 15.5748L155.819 21.5544L150.259 31.6364L144.212 35.5996L136.011 40.0495L130.66 46.5159L129.409 51.5916L126.073 59.7962L127.81 71.7554L120.791 79.7514L116.621 82.3241L109.949 88.8599L102.304 89.9724L98.0644 93.6575L97.9254 93.7966L92.4349 103.6L86.8054 107.146L83.6779 113.057L83.3304 118.202L80.9674 123.834L78.1874 125.363L73.3919 131.482L70.3339 138.296L70.8204 141.494L67.9709 146.57L64.7044 149.143L64.1484 153.593L64.2874 153.662L83.0524 152.897L84.1644 149.421L87.6394 145.11L90.6974 131.83L102.443 121.4L106.613 109.302L109.184 108.537L112.103 101.028L119.053 100.054L121.972 101.306H125.725L128.436 99.0809L133.509 98.8028L133.44 93.588H134.691L134.83 82.2545L148.174 75.1624L156.375 73.7023L163.047 71.1297L166.244 66.2625L175.835 62.5079L176.252 55.4158L180.908 54.5814L184.661 51.0354L195.225 49.4362L196.754 45.6815L194.6 43.6651L191.889 33.4442L191.403 27.6036L188.484 21.3459Z" fill="#C8C8C8" stroke="black" stroke-linejoin="round"/>
<path d="M627.516 490.051L625.778 483.724L623.693 479.621L620.983 475.519L617.994 479.83L617.508 485.601L612.573 492.276L609.029 491.094L609.932 495.266L607.152 500.063L599.924 505.973L594.851 511.466L591.098 511.605L587.901 513.343L583.105 515.29L578.935 515.708L577.406 521.757L574.14 527.18L574.279 536.01L575.46 542.06L577.128 546.649L575.947 552.767L571.499 560.068L571.29 563.266L567.329 564.935L565.383 571.888L565.661 578.772L568.024 586.42L567.954 594.972L569.761 600.048L576.086 603.524L580.603 605.958L588.179 601.925L595.059 599.631L599.785 588.436L604.025 575.087L610.488 556.87L615.562 543.589L619.662 532.395L620.774 524.26L623.207 522.035L624.249 517.933L623.068 510.84L624.875 507.99L627.307 513.622L628.975 510.771L630.157 506.182L628.211 501.662L627.516 490.051Z" fill="#C8C8C8" stroke="black" stroke-linejoin="round"/>
<path d="M241.443 175.425L232.2 176.329L232.061 170.211L228.238 168.681L223.025 165.9L221.01 161.45L192.932 140.452L165.132 119.453L152.483 119.592L156.028 161.102L159.781 202.612L161.171 203.863L159.294 210.538L125.587 210.677L124.266 212.833L121.069 212.207L116.274 214.084L110.436 211.442L107.795 211.651L106.266 217.352L103.416 219.091L103.694 225.07L105.293 230.563L108.42 233.275L109.115 236.96L108.698 240.019L109.115 243.496H110.505L112.729 242.244L114.119 242.522L116.413 244.956L120.027 245.721L122.32 243.635L125.1 242.383L127.116 241.062L128.784 241.271L130.66 243.426L131.633 246.068L135.108 250.101L133.371 252.535L132.954 255.664L134.761 254.76L135.873 255.872L135.386 258.723L137.958 261.504L139.07 260.6L141.363 262.06L147.896 262.13L149.495 259.349L150.954 259.557L153.387 258.445L154.638 262.547L156.653 261.365L160.128 259.905L159.572 254.342L161.935 250.24L161.727 246.972L168.468 239.046L169.719 232.44L172.082 230.076L176.113 231.397L179.658 229.451L180.839 226.947L187.372 222.637L188.971 219.647L196.824 215.614L201.48 214.293L203.565 216.101H208.987L214.338 215.684L217.465 212.277L228.933 211.442L236.37 209.912L237.064 204.002L241.652 197.606L241.443 175.425Z" fill="#C8C8C8" stroke="black" stroke-linejoin="round"/>
<path d="M547.799 463.212L546.617 458.901L539.667 464.533L530.354 468.218L525.281 468.079L522.153 470.999L516.315 471.208L514.022 472.46L504.014 469.748L500.747 470.096L498.454 479.204L499.427 490.19H499.913L502.832 493.249L506.029 500.202L506.238 512.579L502.485 514.665L499.635 521.339L494.423 515.36L494.075 508.615L496.091 504.096L495.743 500.272L492.477 497.838L490.183 498.673L485.457 494.084L459.673 502.01L460.229 508.894L460.646 512.44L467.596 512.231L471.418 514.317L473.156 516.681L477.117 517.376L481.357 520.436L480.801 532.603L478.855 539.278L478.16 546.509L479.341 549.36L478.16 554.992L476.839 555.896L474.337 562.78L465.024 573.696L468.291 587.254L470.028 594.138L467.943 604.846L468.43 608.322L469.333 612.633L469.75 616.874L476.005 616.944L477.048 611.868L475.032 611.242L474.615 607.21L478.438 603.594L488.724 598.379L495.743 595.181L499.427 591.704L500.886 587.741L499.01 586.072L500.678 581.622L501.442 572.166L499.913 572.653L499.983 569.802L498.662 564.17L495.048 556.87L496.16 549.986L499.705 547.761L505.89 540.947L509.157 539.209L519.165 528.849L528.895 524.19L536.748 520.505L542.378 514.595L545.992 507.92L548.841 501.037L547.59 496.309L547.868 481.29L547.173 472.807L547.799 463.212Z" fill="#C8C8C8" stroke="black" stroke-linejoin="round"/>
<path d="M165.132 119.453L134.482 96.1606L134.135 110.693L107.099 110.206L106.821 134.82L99.0374 135.723L96.8829 140.66L98.2034 154.566L65.6079 154.497L63.7314 157.695L67.9709 161.867L70.0559 166.386L69.0829 171.184L69.9864 175.982L70.6814 185.507L69.4304 194.546L66.9979 199.274L67.6234 204.489L70.5424 201.36L74.7124 202.195L78.8129 200.109L83.5389 200.039L87.5004 202.82L92.9909 205.393L97.9949 212.485L103.416 219.09L106.265 217.352L107.794 211.651L110.435 211.442L116.273 214.084L121.069 212.207L124.266 212.833L125.586 210.677L159.294 210.538L161.17 203.863L159.78 202.612L156.027 161.102L152.483 119.592L165.132 119.453Z" fill="#C8C8C8" stroke="black" stroke-linejoin="round"/>
<path d="M496.647 494.848L496.855 491.233L494.979 488.382L495.257 484.21L492.963 477.118L495.535 471.764L495.396 460.153L492.546 453.964L492.824 452.922L491.226 450.279L482.955 448.472L486.847 452.782L488.793 460.918L487.264 463.56L485.388 471.347L486.778 479.343L483.998 482.681L481.148 491.58L485.457 494.084L490.183 498.673L492.477 497.838L495.743 500.272L496.091 504.096L494.075 508.615L494.423 515.36L499.635 521.34L502.485 514.665L506.238 512.579L506.029 500.202L502.832 493.249L499.913 490.19H499.427L499.496 491.511L501.095 491.859L502.624 497.004L502.346 498.186L499.496 494.501L497.967 496.865L496.647 494.848Z" fill="#C8C8C8" stroke="black" stroke-linejoin="round"/>
<path d="M400.32 528.223L384.752 532.186L364.527 530.796L358.828 526.207L324.912 526.624L323.592 527.319L318.657 522.939L313.236 522.661L308.232 524.26L304.132 526.137L304.549 533.507L311.151 542.894L312.889 548.943L317.059 560.485L321.159 568.412L324.356 572.375L325.26 577.659L325.19 589.132L327.553 603.942L329.36 610.964L330.889 620.281L333.878 627.304L339.646 634.605L343.816 629.877L346.944 632.449L348.125 636.621L351.739 637.316L356.813 639.124L361.261 638.429L368.767 633.492L370.296 597.962L371.269 569.872L379.47 569.524L380.79 535.246L387.045 534.967L400.042 531.56L403.1 535.524L408.59 531.769H411.092L415.888 529.614V528.779L412.621 526.624L407.2 526.067L400.32 528.223Z" fill="#C8C8C8" stroke="black" stroke-linejoin="round"/>
<path d="M318.518 138.088L305.313 133.916L277.166 152.272L253.188 171.114L241.443 175.425L241.651 197.606L237.064 204.002L236.369 209.912L228.933 211.442L217.465 212.277L214.338 215.684L208.986 216.101L208.291 220.759L209.403 225.14L214.199 231.397L214.477 236.056L224.207 238.211L223.998 244.817L226.848 242.036L229.836 241.966L236.3 247.528L236.856 238.907L239.288 235.083L240.4 229.52L242.624 227.434L251.659 226.322L260.138 229.868L263.335 233.553L267.575 233.692L271.606 231.328L281.822 236.265L286.131 236.056L291.066 231.954L296 232.232L298.433 230.911L302.95 231.467L309.483 234.248L316.016 228.894L318.032 229.311L323.87 239.811L325.399 239.602L325.677 236.543L328.04 235.986L328.804 231.467L323.383 231.258L323.314 225.07L319.769 221.455L323.175 208.8L333.739 199.761L333.878 187.246L336.658 167.707L338.395 163.536L334.851 160.268L334.642 157.208L331.445 154.705L329.082 139.756L323.314 143.302L318.518 138.088Z" fill="#C8C8C8" stroke="black" stroke-linejoin="round"/>
<path d="M325.399 239.602L323.87 239.811L318.032 229.311L316.017 228.894L309.484 234.248L302.951 231.467L298.433 230.911L296.001 232.232L291.066 231.954L286.132 236.056L281.823 236.265L271.606 231.328L267.575 233.692L263.336 233.553L260.139 229.868L251.66 226.322L242.625 227.434L240.401 229.52L239.289 235.083L236.856 238.907L236.3 247.528L235.953 250.727L237.899 256.428L236.231 260.322L237.134 262.895L233.034 268.805L230.462 271.795L228.864 277.844L229.072 283.962L228.655 299.468H236.092L242.486 299.398L248.463 305.725L251.312 312.679L255.83 318.658L262.641 318.867L265.907 316.711L269.104 317.268L277.931 313.791L280.085 306.977L284.047 297.66L286.549 297.59L291.553 291.958L294.75 291.819L299.545 295.783L305.314 292.515L306.078 288.551L307.955 284.658L309.275 279.791L313.723 275.827L315.391 269.083L317.198 266.927L318.31 261.921L320.465 255.803L327.554 248.363L327.901 245.164L328.805 243.426L325.399 239.602Z" fill="#F8A41D" stroke="black" stroke-linejoin="round"/>
<path d="M464.19 370.597L459.047 373.587L457.032 372.614L454.599 375.256L454.252 381.027L453.07 381.722L452.236 387.007L457.379 387.771L460.02 382.279L464.538 382.904L466.97 381.653L467.526 376.021L464.19 370.597Z" fill="#C8C8C8" stroke="black" stroke-linejoin="round"/>
<path d="M134.691 93.588H133.44L133.509 98.8028L128.436 99.0809L125.725 101.306H121.972L119.053 100.054L112.103 101.028L109.184 108.537L106.613 109.302L102.443 121.4L90.6974 131.83L87.6394 145.11L84.1644 149.421L83.0524 152.897L64.2874 153.662L64.1484 153.593L63.7314 157.695L65.6079 154.497L98.2034 154.566L96.8829 140.66L99.0374 135.723L106.821 134.82L107.099 110.206L134.135 110.693L134.482 96.1606L134.691 94.2833V93.588Z" fill="#C8C8C8" stroke="black" stroke-linejoin="round"/>
<path d="M514.3 202.959L514.787 196.563L517.289 193.642L523.405 192.043L527.366 186.55L522.571 183.004L519.235 180.64L515.551 169.168L513.814 159.225L515.551 157.487L512.285 148.03H479.342H447.094H413.664L414.359 167.29H404.768L404.838 171.323L406.506 209.495L399.208 208.87L395.594 215.962L393.509 221.872L395.316 224.097L392.675 227.087L393.718 231.05L391.633 235.083L390.799 238.559L393.787 238.003L395.594 241.757L395.803 247.32L399 250.171L398.93 252.535L399.973 256.637L404.977 262.617L405.046 266.58L403.726 270.543L404.351 273.533L407.27 276.314L407.965 276.801L410.606 275.688L413.456 273.881L415.471 265.328L417.695 260.878L423.811 259.557L425.271 262.199L429.788 267.762L432.082 268.596L435.14 266.997L441.186 267.275L442.437 269.292H450.847L451.055 267.275L455.434 265.467L456.198 262.686L459.395 260.67L466.623 266.302L470.932 265.328L474.963 258.375L479.481 253.091L478.577 247.32L476.492 244.539L481.566 243.982L482.052 241.897L486.014 242.522L485.18 249.614L486.361 256.567L490.879 260.392L491.921 263.66V268.457L493.103 268.666L493.033 267.484L495.327 257.402L499.219 254.76L499.983 250.796L503.319 243.426L508.254 238.698L511.381 229.242L512.354 220.968L511.312 217.074L514.3 202.959Z" fill="#C8C8C8" stroke="black" stroke-linejoin="round"/>
<path d="M491.921 263.66L490.878 260.392L486.361 256.567L485.179 249.614L486.013 242.522L482.052 241.896L481.565 243.982L476.492 244.539L478.577 247.32L479.48 253.091L474.963 258.375L470.932 265.328L466.623 266.302L459.395 260.67L456.198 262.686L455.433 265.467L451.055 267.275L450.846 269.291H442.437L441.186 267.275L435.139 266.997L432.081 268.596L429.788 267.762L425.27 262.199L423.811 259.557L417.695 260.878L415.471 265.328L413.455 273.881L410.606 275.688L407.965 276.801L413.803 280.555L418.529 284.38L418.598 287.508L424.367 292.515L427.981 296.687L430.205 302.458L436.599 306.282L437.989 309.341L443.201 317.268L447.024 318.45L449.248 316.85L453.209 317.476L457.935 315.46L459.951 319.562L467.526 325.959L471.001 323.317L476.422 325.472L483.233 323.178L489.21 323.247L494.353 318.797L499.496 313.026L505.126 306.699L499.983 296.269L496.021 294.044L494.492 290.151L490.114 285.492L484.901 284.797L487.681 279.304L492.129 279.095L493.38 276.175L493.102 268.666L491.921 268.457V263.66Z" fill="#C8C8C8" stroke="black" stroke-linejoin="round"/>
<path d="M103.416 219.091L97.9949 212.485L92.9909 205.393L87.5004 202.82L83.5389 200.039L78.8129 200.109L74.7124 202.195L70.5424 201.36L67.6234 204.489L65.5384 209.426L61.2989 216.17L57.5459 217.978L61.7159 221.385L65.0519 228.894L74.2259 228.616L76.1719 226.322L78.8129 226.183L82.0794 228.547L84.7204 228.616L87.5004 227.017L89.1684 229.798L85.4849 231.954L81.8709 231.745L78.2569 229.729L75.1294 231.954L73.6004 232.023L71.5154 233.344L63.8704 233.205L65.1214 240.575L69.6389 238.976L72.4189 239.324L74.7124 238.211L90.2804 238.629L94.3114 238.698L100.358 241.062L102.234 240.854L102.86 239.741L107.447 240.506L108.698 240.019L109.115 236.96L108.42 233.275L105.292 230.563L103.694 225.07L103.416 219.091Z" fill="#C8C8C8" stroke="black" stroke-linejoin="round"/>
<path d="M119.193 278.817L116.899 279.373L116.969 275.827L115.648 273.324L115.926 270.543L114.119 266.51L111.826 263.034H105.084L103.069 264.842L100.775 265.05L99.3159 267.136L98.2734 269.778L93.7559 274.02L94.7289 281.181L96.1884 284.658L100.567 289.803L106.613 293.697L108.907 294.392L110.922 291.333L111.409 288.551L115.231 283.337L119.193 278.817Z" fill="#C8C8C8" stroke="black" stroke-linejoin="round"/>
<path d="M468.43 608.322L464.399 606.514L461.967 607.21L460.994 609.991L458.492 613.606L458.353 616.944L462.94 622.159L467.804 621.116L469.751 616.874L469.333 612.633L468.43 608.322Z" fill="#C8C8C8" stroke="black" stroke-linejoin="round"/>
<path d="M404.838 171.323L370.991 152.897L337.353 134.472L329.083 139.756L331.446 154.705L334.643 157.208L334.851 160.268L338.396 163.536L336.658 167.707L333.878 187.246L333.739 199.761L323.175 208.8L319.77 221.455L323.314 225.07L323.384 231.258L328.805 231.467L328.04 235.986L331.446 242.175L332.141 248.502L331.863 254.899L336.589 263.66L331.863 263.59L329.5 264.216L325.608 263.312L323.87 267.831L328.874 273.463L332.558 275.063L333.809 279.026L336.519 285.701L335.268 288.273L342.218 287.578L343.747 285.075L345.207 285.284L347.292 287.439L357.925 283.754L361.47 279.999L365.848 276.662L365.014 273.255L367.377 272.42L375.578 272.977L383.432 268.527L389.409 258.028L393.579 254.134L398.93 252.535L399 250.171L395.803 247.32L395.594 241.757L393.787 238.003L390.799 238.559L391.633 235.083L393.718 231.05L392.675 227.087L395.316 224.097L393.509 221.872L395.594 215.962L399.208 208.87L406.506 209.495L404.838 171.323Z" fill="#C8C8C8" stroke="black" stroke-linejoin="round"/>
<path d="M213.434 253.925L205.998 253.717L205.372 256.706L208.917 261.643V268.666L209.751 276.245L211.836 279.721L209.959 288.412L210.654 293.14L212.878 299.259L214.824 302.666L221.635 300.58L219.55 293.975L219.898 271.864L218.16 269.917L217.882 265.189L214.894 261.782L212.322 258.931L213.434 253.925Z" fill="#C8C8C8" stroke="black" stroke-linejoin="round"/>
<path d="M298.503 41.023L295.375 39.4933L293.151 34.9043L288.981 34.7652L287.313 29.4809L292.387 24.6138L293.151 16.2006L290.302 13.767L290.163 9.24755L293.985 4.38042L293.36 2.5031L286.757 6.11868L286.827 1.18202L281.197 0L272.718 3.96324L271.189 8.96943L272.788 18.2865L271.12 26.352L266.255 31.7754L267.158 39.0066L273.9 44.7776L274.039 47.0721L279.112 50.9658L283.074 68.1399L286.966 65.9149L287.591 61.8821L286.549 57.9189L292.039 54.2338L294.402 51.1744L298.294 48.3932L298.503 41.023Z" fill="#C8C8C8" stroke="black" stroke-linejoin="round"/>
<path d="M467.179 369.415L464.19 370.597L467.526 376.021L466.97 381.653L464.538 382.904L464.955 386.659L466.762 388.884L466.831 392.013L464.746 394.029L461.341 399.035L458.213 402.512L457.379 402.651L456.893 406.753L458.491 408.144L458.144 412.246L459.742 416.07L457.727 419.755L464.468 426.291L465.024 432.201L469.125 442.075L469.542 442.353L472.878 443.952L478.229 445.621L482.955 448.472L491.226 450.279L492.824 452.922L493.38 451.044L497.689 456.189L498.106 466.271L500.817 469.956L500.747 470.096L504.014 469.748L514.022 472.46L516.315 471.208L522.153 470.999L525.281 468.079L530.354 468.218L539.667 464.533L546.617 458.901L543.559 456.815L540.293 447.359L537.513 441.31L538.208 436.721L537.791 433.801L540.223 427.96L540.015 425.457L534.663 421.98L534.246 416.557L538.347 404.667L526.323 395.072L525.837 389.51L495.187 369.902L491.017 374.143L488.168 378.524L491.504 381.792L486.639 384.156L485.596 383.043L480.662 383.669L476.839 385.825L474.546 382.07L476.144 375.325L476.492 369.554L467.179 369.415Z" fill="#C8C8C8" stroke="black" stroke-linejoin="round"/>
<path d="M494.354 318.797L489.211 323.247L483.234 323.178L476.423 325.472L471.002 323.317L467.527 325.959L467.11 337.153L470.515 338.474L467.805 341.881L464.538 344.454L461.341 349.46L459.534 353.91L459.117 361.628L457.102 365.313L457.032 372.614L459.048 373.587L464.191 370.597L467.179 369.415L476.492 369.554L476.006 365.869L479.967 360.237L485.319 358.847L488.933 356.552L493.311 358.43L493.728 359.125V358.638L496.161 354.744L500.261 348.348L503.319 341.325L499.497 330.339L498.454 325.472L494.354 318.797Z" fill="#F8A41D" stroke="black" stroke-linejoin="round"/>
<path d="M362.998 694.609L366.682 694.401L371.894 690.716L378.844 689.186L387.393 685.362L390.659 685.849L395.663 684.667L404.212 686.544L408.312 684.736L413.108 686.127L414.359 683.485L418.529 682.928L427.286 679.243L433.749 674.863L439.935 669.092L449.943 659.218L455.156 652.335L457.866 647.398L461.688 642.531L463.426 641.14L469.403 636.273L471.836 631.962L473.434 623.966L476.006 616.944L469.751 616.874L467.804 621.116L462.939 622.159L458.353 616.944L458.492 613.606L460.993 609.991L461.967 607.21L464.399 606.514L468.43 608.322L467.943 604.846L470.029 594.138L468.291 587.254L465.024 573.696L460.646 572.792L457.797 573.905L453.835 572.305L450.429 572.166L438.406 579.258L430.622 586.42L427.564 592.886L424.853 596.502L420.336 597.267L418.668 601.856L417.695 604.846L412.274 607.071L405.602 606.653L401.779 603.942L398.374 602.76L394.204 604.985L391.98 609.574L387.949 612.494L383.64 616.805L377.732 617.778L375.995 614.371L377.037 608.531L372.52 599.353L370.296 597.962L368.767 633.492L361.261 638.429L356.813 639.124L351.739 637.316L348.125 636.621L346.944 632.449L343.816 629.877L339.646 634.605L344.998 647.051V647.12L348.751 655.255L353.546 664.155L353.407 671.525L350.697 673.264L352.921 679.73L352.573 685.362L353.477 688.004L353.963 686.683L357.16 690.994L359.801 691.133L362.998 694.609ZM434.583 653.517L431.595 654.421L426.035 647.051L430.831 641.001L435.557 637.247L439.518 635.3L442.854 638.22L445.495 641.14L442.646 645.799L440.978 648.928L436.321 650.458L434.583 653.517Z" fill="#C8C8C8" stroke="black" stroke-linejoin="round"/>
<path d="M466.554 442.214L463.704 441.449L464.191 439.363L462.731 438.946L451.333 440.545L449.04 441.727L446.538 447.846L448.345 452.087L446.607 463.49L445.287 473.155L447.511 474.824L453.349 478.578L455.712 476.84L456.129 487.2L449.665 487.13L446.329 481.846L443.341 477.744L436.947 476.423L435.14 471.347L429.927 474.406L423.186 473.016L420.475 468.705L415.124 467.801L411.162 468.01L410.745 465.02L407.826 464.811L408.66 467.801L407.618 472.46L409.008 476.979L407.618 480.595L408.313 483.863L390.729 483.793L389.617 514.386L395.038 522.243L400.32 528.223L407.201 526.068L412.622 526.624L415.888 528.779V529.614L417.417 530.309L426.73 531.352L429.371 532.464L432.221 532.256L437.086 525.998L444.661 518.072L447.719 517.376L448.901 514.039L453.766 510.215L460.229 508.894L459.673 502.01L485.458 494.083L481.149 491.58L483.998 482.681L486.778 479.343L485.388 471.347L487.265 463.56L488.794 460.917L486.848 452.782L482.956 448.471L478.23 445.621L472.878 443.952L469.542 442.353L469.125 442.075L469.751 443.674L468.361 444.23L466.554 442.214Z" fill="#C8C8C8" stroke="black" stroke-linejoin="round"/>
<path d="M465.025 573.696L474.338 562.78L476.84 555.896L478.16 554.992L479.342 549.36L478.16 546.51L478.855 539.278L480.801 532.603L481.357 520.436L477.118 517.376L473.156 516.681L471.419 514.317L467.596 512.231L460.646 512.44L460.229 508.894L453.766 510.215L448.901 514.039L447.719 517.376L444.661 518.072L437.086 525.998L432.221 532.256L429.371 532.464L426.73 531.352L417.417 530.309L420.336 538.027L421.934 539.696L424.367 545.258L433.402 555.827L436.947 556.87L436.808 560.277L438.962 566.395L445.356 567.855L450.43 572.166L453.835 572.305L457.797 573.905L460.646 572.792L465.025 573.696Z" fill="#C8C8C8" stroke="black" stroke-linejoin="round"/>
<path d="M578.657 259.21L574.695 255.177L572.958 251.214L570.108 249.406L567.189 254.551L565.452 257.958L568.788 263.312L571.985 267.901L575.321 271.377L603.329 282.78L610.488 282.711L587.205 311.566L576.155 311.983L568.718 318.797L563.297 318.936L561.004 321.996L553.706 332.912L553.984 367.955L558.988 375.882L560.865 373.587L562.88 368.512L572.193 356.9L580.116 349.53L592.696 340.004L601.105 332.217L610.905 319.075L617.924 308.298L624.874 294.253L629.739 281.946L633.492 271.169L635.508 260.809L637.176 257.332L636.898 252.257L637.454 246.694L637.106 243.982L633.909 244.052L630.087 247.32L625.639 248.293L621.816 249.753L619.106 249.893L614.31 250.24L611.391 252.048L607.221 252.674L599.924 255.664L590.75 256.776L582.896 259.21H578.657Z" fill="#C8C8C8" stroke="black" stroke-linejoin="round"/>
</g>
<defs>
<clipPath id="clip0">
<rect width="695" height="696" fill="white"/>
</clipPath>
</defs>
</svg>
